<svg width="60" height="60" viewBox="0 0 60 60" fill="none" xmlns="http://www.w3.org/2000/svg">
  <!-- Background -->
  <rect width="60" height="60" rx="12" fill="#0A0A0A"/>
  
  <!-- Flame Icon -->
  <g transform="translate(30, 32)">
    <!-- Main flame shape -->
    <path d="M0 8C4.418 8 8 4.418 8 0C8 -2 7.5 -4 6.5 -6C5.5 -8 4 -10 2 -12C1 -13 0 -14 0 -14S-1 -13 -2 -12C-4 -10 -5.5 -8 -6.5 -6C-7.5 -4 -8 -2 -8 0C-8 4.418 -4.418 8 0 8Z" 
          fill="url(#flame-gradient)"/>
    
    <!-- Inner flame highlight -->
    <path d="M0 5C2.761 5 5 2.761 5 0C5 -1.5 4.5 -3 3.5 -4.5C2.5 -6 1.5 -7.5 0 -9C-1.5 -7.5 -2.5 -6 -3.5 -4.5C-4.5 -3 -5 -1.5 -5 0C-5 2.761 -2.761 5 0 5Z" 
          fill="url(#inner-gradient)"/>
    
    <!-- Core glow -->
    <ellipse cx="0" cy="1" rx="2.5" ry="3" fill="url(#core-gradient)" opacity="0.9"/>
  </g>
  
  <!-- Spider/Crawler element (subtle web pattern) -->
  <g opacity="0.3">
    <circle cx="30" cy="30" r="20" stroke="#FF6B35" stroke-width="0.5" fill="none"/>
    <circle cx="30" cy="30" r="15" stroke="#FF6B35" stroke-width="0.5" fill="none"/>
    <circle cx="30" cy="30" r="10" stroke="#FF6B35" stroke-width="0.5" fill="none"/>
    <line x1="30" y1="10" x2="30" y2="50" stroke="#FF6B35" stroke-width="0.5"/>
    <line x1="10" y1="30" x2="50" y2="30" stroke="#FF6B35" stroke-width="0.5"/>
    <line x1="15.86" y1="15.86" x2="44.14" y2="44.14" stroke="#FF6B35" stroke-width="0.5"/>
    <line x1="44.14" y1="15.86" x2="15.86" y2="44.14" stroke="#FF6B35" stroke-width="0.5"/>
  </g>
  
  <defs>
    <!-- Main flame gradient -->
    <linearGradient id="flame-gradient" x1="0%" y1="0%" x2="0%" y2="100%">
      <stop offset="0%" style="stop-color:#FF6B35;stop-opacity:1" />
      <stop offset="40%" style="stop-color:#FF4500;stop-opacity:1" />
      <stop offset="100%" style="stop-color:#B22222;stop-opacity:1" />
    </linearGradient>
    
    <!-- Inner flame gradient -->
    <linearGradient id="inner-gradient" x1="0%" y1="0%" x2="0%" y2="100%">
      <stop offset="0%" style="stop-color:#FFA500;stop-opacity:1" />
      <stop offset="50%" style="stop-color:#FF8C00;stop-opacity:1" />
      <stop offset="100%" style="stop-color:#FF6347;stop-opacity:1" />
    </linearGradient>
    
    <!-- Core glow gradient -->
    <radialGradient id="core-gradient">
      <stop offset="0%" style="stop-color:#FFFFFF;stop-opacity:1" />
      <stop offset="40%" style="stop-color:#FFD700;stop-opacity:1" />
      <stop offset="100%" style="stop-color:#FFA500;stop-opacity:1" />
    </radialGradient>
  </defs>
</svg>