<svg width="60" height="60" viewBox="0 0 60 60" fill="none" xmlns="http://www.w3.org/2000/svg">
  <!-- Background -->
  <rect width="60" height="60" rx="12" fill="#1a1a1a"/>
  
  <!-- Flame Shape -->
  <g transform="translate(30, 30)">
    <!-- Outer flame -->
    <path d="M0,-20 C-6,-16 -8,-10 -8,-3 C-8,8 -4,14 0,16 C4,14 8,8 8,-3 C8,-10 6,-16 0,-20Z" 
          fill="#FF6B35"/>
    
    <!-- Inner flame -->
    <path d="M0,-15 C-4,-12 -6,-7 -6,-2 C-6,6 -3,10 0,12 C3,10 6,6 6,-2 C6,-7 4,-12 0,-15Z" 
          fill="#FF4500"/>
    
    <!-- Core -->
    <path d="M0,-10 C-2.5,-8 -4,-5 -4,-1 C-4,4 -2,7 0,8 C2,7 4,4 4,-1 C4,-5 2.5,-8 0,-10Z" 
          fill="#FFA500"/>
    
    <!-- Hot center -->
    <ellipse cx="0" cy="2" rx="2" ry="4" fill="#FFEB3B"/>
  </g>
</svg>